<svg width="2158" height="360" viewBox="0 0 2158 360" fill="none" xmlns="http://www.w3.org/2000/svg">
<path d="M500.383 342.685H395.113L344.457 292.029H294.812L126.055 123.272L76.9175 172.409L100.285 195.776V292.029L54.6974 342.685H1V145.209L152.21 1L242.223 91.0131L292.464 141.254L500.383 342.685Z" fill="#FFE01A"/>
<path d="M263.403 279.364V292.537L217.816 340.156H164.118V180.079L263.403 279.364Z" fill="white"/>
<path d="M702 342.685H594.654L543.999 292.029H494.354L325.596 123.272L307.614 141.254L257.374 91.0131L351.752 1L702 342.685Z" fill="white"/>
<path d="M738.65 245.825V351.035L722 334.385V226.185H741.14L796.91 273.545L852.67 226.185H871.82V334.385L855.17 351.035V245.825L796.91 295.355L738.65 245.825Z" fill="white"/>
<path d="M1042.44 226.185L1025.79 242.835H905.11V276.125H1013.31V292.775H905.11V326.065H1038.28V342.705H888.46V226.185H1042.44Z" fill="white"/>
<path d="M1200.58 226.185L1183.93 242.835H1129.83V342.705L1113.19 359.355V242.835H1046.6V226.185H1200.58Z" fill="white"/>
<path d="M1292.14 226.185C1299.79 226.184 1307.37 227.69 1314.44 230.617C1321.51 233.545 1327.93 237.836 1333.34 243.246C1338.75 248.656 1343.04 255.079 1345.97 262.148C1348.9 269.217 1350.4 276.794 1350.4 284.445V334.385L1333.75 351.035V309.415H1217.23V342.705H1200.58V284.445C1200.58 276.794 1202.08 269.217 1205.01 262.148C1207.94 255.079 1212.23 248.656 1217.64 243.246C1223.05 237.836 1229.47 233.545 1236.54 230.617C1243.61 227.69 1251.19 226.184 1258.84 226.185H1292.14ZM1333.75 284.445C1333.75 273.41 1329.36 262.828 1321.56 255.025C1313.76 247.222 1303.17 242.838 1292.14 242.835H1258.84C1247.81 242.838 1237.22 247.222 1229.42 255.025C1221.62 262.828 1217.23 273.41 1217.23 284.445V292.775H1333.75V284.445Z" fill="white"/>
<path d="M1504.38 226.185L1487.73 242.835H1433.63V342.705L1417 359.355V242.835H1350.4V226.185H1504.38Z" fill="white"/>
<path d="M1595.93 226.185C1603.58 226.184 1611.16 227.69 1618.23 230.617C1625.3 233.545 1631.72 237.836 1637.13 243.246C1642.54 248.656 1646.83 255.079 1649.76 262.148C1652.69 269.217 1654.19 276.794 1654.19 284.445V334.385L1637.55 351.035V309.415H1521V342.705H1504.38V284.445C1504.38 276.794 1505.88 269.217 1508.81 262.148C1511.74 255.079 1516.03 248.656 1521.44 243.246C1526.85 237.836 1533.27 233.545 1540.34 230.617C1547.41 227.69 1554.99 226.184 1562.64 226.185H1595.93ZM1637.55 284.445C1637.54 273.41 1633.15 262.83 1625.35 255.028C1617.55 247.226 1606.96 242.84 1595.93 242.835H1562.64C1551.6 242.835 1541.01 247.218 1533.21 255.021C1525.4 262.823 1521.01 273.407 1521 284.445V292.765H1637.55V284.445Z" fill="white"/>
<path d="M1687.49 326.065H1820.66V342.705H1670.84V226.185H1687.49V326.065Z" fill="white"/>
<path d="M1854 292.765V342.705H1837.3V234.505L1854 217.865V276.125H1909.27L1912.27 273.625L1969.27 226.185H1995.27L1925.27 284.445L1995.27 342.705H1969.27L1912.27 295.265L1909.27 292.765H1854Z" fill="white"/>
<path d="M2120.29 342.705H1999.61L2016.25 326.065H2120.25C2124.67 326.065 2128.9 324.311 2132.02 321.188C2135.15 318.066 2136.9 313.831 2136.9 309.415C2136.9 304.999 2135.15 300.764 2132.02 297.642C2128.9 294.519 2124.67 292.765 2120.25 292.765H2037.02C2028.19 292.765 2019.72 289.258 2013.48 283.015C2007.24 276.772 2003.73 268.304 2003.73 259.475C2003.73 250.646 2007.24 242.179 2013.48 235.935C2019.72 229.692 2028.19 226.185 2037.02 226.185H2157.71L2141.06 242.835H2037.06C2034.84 242.781 2032.63 243.171 2030.56 243.983C2028.5 244.795 2026.61 246.012 2025.02 247.563C2023.43 249.114 2022.17 250.968 2021.31 253.014C2020.45 255.061 2020 257.259 2020 259.48C2020 261.701 2020.45 263.899 2021.31 265.946C2022.17 267.992 2023.43 269.846 2025.02 271.397C2026.61 272.948 2028.5 274.165 2030.56 274.977C2032.63 275.789 2034.84 276.179 2037.06 276.125H2120.29C2129.12 276.125 2137.59 279.632 2143.83 285.875C2150.07 292.119 2153.58 300.586 2153.58 309.415C2153.58 318.244 2150.07 326.712 2143.83 332.955C2137.59 339.198 2129.12 342.705 2120.29 342.705V342.705Z" fill="white"/>
</svg>
